<svg width="116" height="50" viewBox="0 0 116 50" fill="none" xmlns="http://www.w3.org/2000/svg">
<path d="M23.395 6.05682C23.3574 6.14232 23.3037 6.17966 23.2338 6.16884C23.1587 6.15801 23.1152 6.18561 23.1033 6.25163C23.0958 6.29276 23.0684 6.31711 23.0212 6.32468C22.9919 6.32991 22.9654 6.34413 22.9455 6.36527L22.0593 7.2565C22.0185 7.29654 21.9697 7.31656 21.9127 7.31656C21.8784 7.31656 21.8488 7.32901 21.8241 7.3539C21.5298 7.64503 21.2414 7.93669 20.959 8.2289C20.8558 8.33496 20.7425 8.41667 20.619 8.47403C20.2506 8.64611 20.097 8.90856 20.1582 9.26137C20.1679 9.31765 20.1443 9.34795 20.0873 9.35228C19.9617 9.36202 19.8677 9.42695 19.8054 9.54708C19.7882 9.58063 19.7608 9.59741 19.7232 9.59741H19.6411C19.5927 9.59741 19.5514 9.61473 19.517 9.64936C19.212 9.96429 18.901 10.2792 18.5842 10.5942C18.5187 10.6591 18.4413 10.7029 18.3522 10.7257C18.3038 10.7386 18.262 10.7625 18.2265 10.7971L17.1793 11.8409C17.1691 11.8512 17.157 11.8592 17.1437 11.8645C17.1304 11.8698 17.1162 11.8723 17.102 11.8718C17.088 11.8707 17.074 11.8696 17.0601 11.8685C17.0235 11.8663 16.9924 11.8783 16.9666 11.9042L15.8872 12.9805C15.87 12.9978 15.849 13.006 15.8243 13.0049C15.8072 13.0049 15.7905 13.0043 15.7744 13.0033C15.7207 13.0022 15.6761 13.0211 15.6407 13.0601C15.2766 13.4692 14.9624 13.7733 14.6982 13.9724C14.5349 14.0947 14.3448 14.2056 14.1278 14.3052C14.1045 14.3159 14.0836 14.332 14.0666 14.3523L13.2514 15.3263C13.2149 15.3707 13.1682 15.3994 13.1112 15.4123C12.977 15.4426 12.8637 15.5152 12.7713 15.6299C12.738 15.671 12.7272 15.717 12.7391 15.7679L12.76 15.8685C12.7804 15.9627 12.7498 15.9843 12.6682 15.9334L12.3234 15.7175" stroke="#F26829" stroke-width="2"/>
<path d="M12.3234 15.7175L7.20972 11.0227" stroke="#95604E" stroke-width="2"/>
<path d="M29.7266 18.9448C30.6063 19.6883 31.4585 20.5536 32.2834 21.5406" stroke="#74405E" stroke-width="2"/>
<path d="M32.2834 21.5406C34.2759 23.9843 35.6093 26.7413 36.2838 29.8117C36.3612 30.1623 36.4901 30.1829 36.6705 29.8734C36.7532 29.7327 36.8692 29.6136 37.0185 29.5162C37.1689 29.4188 37.3074 29.3133 37.4342 29.1997C37.9626 28.7289 38.468 28.2105 38.9502 27.6445" stroke="#543F67" stroke-width="2"/>
<path d="M34.3956 14.9578L32.5831 16.5942C32.5609 16.6144 32.5437 16.6406 32.5331 16.6705C32.5106 16.7354 32.466 16.7728 32.3994 16.7825C32.3659 16.7867 32.3353 16.8016 32.3124 16.8247C31.4918 17.6223 30.6299 18.329 29.7266 18.9448" stroke="#D24939" stroke-width="2"/>
<path d="M29.7266 18.9448C25.1446 15.2511 19.9515 13.8701 14.1472 14.802C14.0645 14.8149 14.0436 14.8582 14.0844 14.9318C14.1757 15.0996 14.2831 15.2614 14.4066 15.4172C14.7288 15.8214 14.7868 16.3555 14.3889 16.7192C14.2299 16.8653 14.0269 16.9578 13.7799 16.9968C13.7251 17.0043 13.6778 16.9897 13.6381 16.9529L12.3234 15.7175" stroke="#934649" stroke-width="2"/>
<path d="M36.25 18.7078C35.8451 19.1136 35.4713 19.5357 35.1287 19.974C35.0642 20.0573 34.9842 20.1028 34.8886 20.1104C34.8371 20.1136 34.7919 20.1325 34.7533 20.1672C34.2141 20.6542 33.6712 21.1342 33.1244 21.6071C32.7442 21.9372 32.4639 22.1315 32.2834 22.1899" stroke="#934257" stroke-width="2"/>
<path d="M110.977 34.7126C110.806 34.6769 110.642 34.6428 110.487 34.6104C110.322 34.5747 110.163 34.5233 110.01 34.4562C109.561 34.257 109.112 34.0839 108.665 33.9367C108.598 33.915 108.541 33.8793 108.492 33.8295L108.399 33.7354C108.319 33.6564 108.27 33.6726 108.251 33.7841L107.819 36.3376" stroke="#543F67" stroke-width="2"/>
<path d="M7.20972 11.0227L12.3234 15.7175L13.6381 16.9529C13.6778 16.9897 13.725 17.0043 13.7798 16.9967C14.0269 16.9578 14.2299 16.8652 14.3888 16.7191C14.7868 16.3555 14.7288 15.8214 14.4065 15.4172C14.283 15.2613 14.1756 15.0995 14.0843 14.9318C14.0435 14.8582 14.0645 14.8149 14.1472 14.8019C19.9515 13.8701 25.1446 15.2511 29.7266 18.9448C30.6063 19.6883 31.4586 20.5535 32.2834 21.5406C34.2758 23.9843 35.6093 26.7413 36.2838 29.8117C36.3612 30.1623 36.4901 30.1829 36.6705 29.8734C36.7532 29.7327 36.8692 29.6136 37.0185 29.5162C37.1689 29.4188 37.3074 29.3133 37.4342 29.1996C37.9626 28.7289 38.468 28.2105 38.9502 27.6445C39.2676 31.7402 38.2123 35.4643 35.5282 38.5909C30.8786 44.0032 23.3933 45.9188 16.4462 45.9772C13.3668 46.0032 10.3111 45.9599 7.27899 45.8474C7.23388 45.8452 7.21133 45.8214 7.21133 45.776L7.20972 11.0227ZM29.4189 24.3279C27.9995 21.3928 24.8014 19.5406 21.7178 18.8409C19.6953 18.3831 17.6492 18.178 15.5794 18.2256C15.5268 18.2267 15.5 18.2543 15.4989 18.3084C15.4624 25.2262 15.4645 32.2116 15.5053 39.2646C15.5057 39.2873 15.5149 39.3089 15.5308 39.325C15.5467 39.341 15.5682 39.3502 15.5907 39.3506C17.8763 39.4047 20.1786 39.0985 22.4976 38.4318C26.3111 37.3344 29.6605 34.5373 30.2679 30.4139C30.5934 28.1997 30.3104 26.171 29.4189 24.3279Z" fill="#353D6E"/>
<path fill-rule="evenodd" clip-rule="evenodd" d="M23.395 6.05683C20.3833 4.73324 17.2438 3.94969 13.9764 3.70618C13.9626 3.70537 13.9492 3.70089 13.9376 3.6932C13.926 3.6855 13.9166 3.67486 13.9104 3.66234C13.9042 3.64983 13.9014 3.63589 13.9022 3.62192C13.9031 3.60796 13.9075 3.59446 13.9152 3.5828C14.0849 3.31765 14.26 3.05467 14.4404 2.79384C14.8964 2.13638 14.5629 1.40423 13.7928 1.29871C13.7639 1.29519 13.7347 1.29801 13.7072 1.30698C13.6796 1.31596 13.6544 1.33086 13.6333 1.35066C11.2939 3.52274 8.89661 5.72783 6.44127 7.96592C6.22109 8.16722 6.06213 8.41614 5.96439 8.71267C5.78394 9.25813 5.95096 9.78356 6.46544 10.289C6.73933 10.5585 6.98744 10.803 7.20977 11.0227L12.3234 15.7175L13.6381 16.9529C13.6779 16.9897 13.7251 17.0043 13.7799 16.9968C14.0269 16.9578 14.2299 16.8653 14.3889 16.7192C14.7868 16.3555 14.7288 15.8214 14.4066 15.4172C14.2831 15.2614 14.1757 15.0996 14.0844 14.9318C14.0436 14.8582 14.0645 14.815 14.1472 14.802C19.9515 13.8701 25.1447 15.2511 29.7267 18.9448L29.7267 18.9448C30.6063 19.6883 31.4586 20.5536 32.2835 21.5406C34.2759 23.9843 35.6094 26.7413 36.2839 29.8117C36.3612 30.1623 36.4901 30.1829 36.6706 29.8734C36.7533 29.7327 36.8693 29.6136 37.0186 29.5162C37.1689 29.4188 37.3075 29.3133 37.4342 29.1997C37.9627 28.7289 38.468 28.2105 38.9503 27.6445C38.903 26.901 38.801 26.1423 38.6442 25.3685C38.1318 22.8377 37.4487 20.3507 36.2501 18.0584C36.2501 18.0584 36.2501 18.0584 36.2501 18.0584C35.684 16.948 35.0659 15.9145 34.3957 14.9578L34.3957 14.9578C31.5408 11.013 27.8465 8.01138 23.395 6.05683ZM15.7744 13.0033C15.7906 13.0043 15.8072 13.0049 15.8244 13.0049C15.8072 13.0049 15.7906 13.0043 15.7744 13.0033ZM17.1437 11.8645C17.1304 11.8698 17.1162 11.8723 17.102 11.8718C17.1162 11.8723 17.1304 11.8698 17.1437 11.8645ZM17.1437 11.8645C17.157 11.8592 17.1692 11.8512 17.1793 11.8409C17.1692 11.8512 17.157 11.8592 17.1437 11.8645Z" fill="url(#paint0_linear_1401_386)"/>
<path d="M110.977 34.7127C110.806 34.6769 110.643 34.6429 110.487 34.6104C110.322 34.5747 110.163 34.5233 110.01 34.4562C109.561 34.257 109.113 34.0839 108.665 33.9367C108.598 33.915 108.541 33.8793 108.492 33.8295L108.399 33.7354C108.319 33.6564 108.27 33.6726 108.251 33.7841L107.819 36.3377C107.16 38.5714 105.952 40.4589 104.194 42C104.078 42.1017 103.954 42.1596 103.822 42.1737C104.15 41.7467 104.476 41.3263 104.727 40.8506C105.822 38.7716 106.004 36.6131 105.273 34.375C104.769 32.8295 103.656 31.3328 102.323 30.4237C101.473 29.8436 100.52 29.5476 99.4652 29.5357C98.6091 29.5271 97.6495 29.5893 96.5861 29.7224C96.3616 29.7505 96.1533 29.8009 95.961 29.8734C95.8715 29.9076 95.7944 29.9685 95.74 30.048C95.6856 30.1274 95.6565 30.2217 95.6565 30.3182V45.2094C95.6565 45.6326 95.446 45.8458 95.025 45.849C93.7672 45.8598 92.4756 45.8615 91.1502 45.8539C90.7491 45.8506 90.2528 45.8847 90.2512 45.2922C90.2265 39.0974 90.2158 32.7013 90.219 26.1039C90.219 26.0083 90.242 25.9141 90.286 25.8295C90.3301 25.745 90.3939 25.6725 90.4719 25.6185C90.8726 25.3382 91.2888 25.0914 91.7206 24.8782C96.6602 22.4383 102.401 23.2062 106.562 26.8003C108.936 28.8501 110.407 31.4875 110.977 34.7127Z" fill="#353D6E"/>
<path d="M56.5919 32.5958C56.6027 32.6129 56.6199 32.6251 56.6397 32.6296C56.6596 32.6342 56.6806 32.6308 56.6983 32.6201C57.7884 31.9556 58.9264 31.4545 60.1122 31.1169C61.9473 30.5958 64.1142 30.948 65.1904 32.6445C65.2463 32.7332 65.3193 32.7511 65.4095 32.698C67.0056 31.7825 68.5238 31.2072 69.9641 30.9724C73.0462 30.4691 75.226 32.276 75.2115 35.4562C75.1943 39.1033 75.1949 42.4908 75.2131 45.6185C75.2134 45.6306 75.2112 45.6426 75.2067 45.6538C75.2023 45.665 75.1957 45.6752 75.1873 45.6838C75.1789 45.6924 75.1689 45.6993 75.1578 45.704C75.1468 45.7086 75.1349 45.711 75.1229 45.711H70.9695C70.9029 45.711 70.8696 45.6775 70.8696 45.6104C70.8814 42.6634 70.8825 39.7781 70.8728 36.9545C70.8717 36.6201 70.8465 36.2684 70.7971 35.8993C70.4588 33.3799 67.3912 34.6347 66.0975 35.3377C65.9826 35.3993 65.9245 35.4989 65.9235 35.6364C65.8988 38.4946 65.909 41.809 65.9541 45.5795C65.9543 45.5975 65.951 45.6153 65.9443 45.632C65.9377 45.6486 65.9279 45.6637 65.9154 45.6765C65.9029 45.6892 65.8881 45.6992 65.8718 45.706C65.8555 45.7127 65.838 45.7161 65.8204 45.7159L61.7024 45.7045C61.6908 45.7045 61.6794 45.7022 61.6687 45.6977C61.658 45.6932 61.6484 45.6866 61.6403 45.6783C61.6322 45.67 61.6258 45.6601 61.6215 45.6493C61.6172 45.6385 61.6152 45.6269 61.6154 45.6152C61.6787 42.4399 61.6803 39.4443 61.6202 36.6282C61.5445 33.125 58.4157 34.539 56.7337 35.5308C56.6607 35.5741 56.6241 35.638 56.6241 35.7224L56.6467 45.6152C56.6467 45.6791 56.615 45.711 56.5516 45.711L52.4224 45.7143C52.4134 45.7145 52.4045 45.7129 52.3962 45.7095C52.3879 45.7062 52.3804 45.7012 52.374 45.6948C52.3677 45.6884 52.3627 45.6808 52.3594 45.6725C52.3561 45.6641 52.3545 45.6551 52.3547 45.6461C52.4353 40.6899 52.424 36.2127 52.3579 31.349C52.3568 31.2873 52.3869 31.2565 52.4481 31.2565L56.4598 31.2549C56.5479 31.2549 56.5925 31.2992 56.5935 31.388C56.5989 31.7559 56.5871 32.1142 56.5581 32.4627C56.5549 32.5103 56.5661 32.5546 56.5919 32.5958Z" fill="#353D6E"/>
<path d="M80.1544 38.5682C80.1855 39.4059 80.4583 40.1429 80.9728 40.7793C82.7305 42.9497 86.341 42.7809 88.8238 42.6283C88.9301 42.6218 88.9757 42.6716 88.9607 42.7776L88.5579 45.6429C88.5472 45.7154 88.5058 45.7549 88.4339 45.7614C86.9151 45.8956 85.4184 45.8896 83.9437 45.7435C79.1136 45.2663 75.139 42.2273 75.9848 36.8263C76.205 35.4162 76.8392 34.1559 77.8875 33.0455C79.8386 30.9789 82.9996 30.4643 85.6241 31.2435C87.9022 31.9205 89.3006 33.8637 89.6889 36.2094C89.8028 36.8999 89.8645 37.6115 89.8742 38.3442C89.8753 38.434 89.8312 38.4789 89.7421 38.4789H80.2414C80.2297 38.4789 80.2181 38.4813 80.2073 38.4858C80.1965 38.4903 80.1868 38.4969 80.1787 38.5053C80.1706 38.5136 80.1642 38.5235 80.16 38.5343C80.1559 38.5451 80.1539 38.5566 80.1544 38.5682ZM80.0964 36.5893L85.79 36.5601C85.8024 36.5601 85.8143 36.5551 85.8231 36.5463C85.8318 36.5375 85.8368 36.5255 85.8368 36.513V36.4773C85.8349 36.0932 85.7581 35.7133 85.6109 35.3592C85.4637 35.0051 85.249 34.6838 84.9789 34.4136C84.7088 34.1435 84.3888 33.9298 84.037 33.7847C83.6852 33.6396 83.3086 33.5661 82.9287 33.5682H82.9255C82.1588 33.5725 81.4251 33.8844 80.8858 34.4354C80.3465 34.9864 80.0458 35.7314 80.0496 36.5065V36.5422C80.0496 36.5547 80.0546 36.5667 80.0633 36.5755C80.0721 36.5844 80.084 36.5893 80.0964 36.5893Z" fill="#353D6E"/>
<path d="M47.2684 36.3961C47.205 35.7706 46.9821 35.309 46.5997 35.0114C45.8264 34.4075 44.5971 34.2435 43.6321 34.2175C42.4721 34.1872 41.3078 34.2089 40.1392 34.2825C40.1276 34.2833 40.1159 34.2815 40.1051 34.2771C40.0942 34.2728 40.0844 34.266 40.0764 34.2573C40.0684 34.2487 40.0624 34.2382 40.0587 34.2269C40.0551 34.2155 40.054 34.2034 40.0554 34.1915L40.4147 31.2435C40.4233 31.1721 40.463 31.1342 40.5339 31.1299C42.4361 31.0119 44.1745 31.046 45.7491 31.2321C48.4799 31.5536 50.9111 33.0568 51.4154 35.9286C51.5324 36.5941 51.5926 37.2668 51.5958 37.9464C51.6087 40.4767 51.606 43.033 51.5877 45.6152C51.5877 45.6845 51.5539 45.7218 51.4862 45.7273C49.4681 45.908 47.5449 45.9783 45.7169 45.9383C43.3405 45.8864 39.7702 45.3685 38.6811 42.8734C38.4545 42.3571 38.3616 41.79 38.4024 41.1721C38.5893 38.25 41.6746 37.2857 44.2137 36.8977C45.3232 36.7278 46.2969 36.6136 47.1346 36.5552C47.2345 36.5487 47.2791 36.4957 47.2684 36.3961ZM47.5132 38.5649C47.5133 38.5539 47.511 38.543 47.5067 38.5329C47.5023 38.5228 47.4959 38.5137 47.4879 38.5062C47.4799 38.4988 47.4704 38.4931 47.46 38.4895C47.4497 38.4859 47.4388 38.4845 47.4279 38.4854C45.8135 38.5941 42.203 39.039 42.7637 41.5552C43.1665 43.3604 45.994 43.4253 47.386 43.3165C47.421 43.3141 47.4538 43.2983 47.4777 43.2724C47.5017 43.2464 47.5149 43.2123 47.5149 43.1769L47.5132 38.5649Z" fill="#353D6E"/>
<path fill-rule="evenodd" clip-rule="evenodd" d="M111.152 37.685C111.202 36.6959 111.143 35.7051 110.977 34.7126L110.487 34.6104C110.322 34.5747 110.163 34.5233 110.01 34.4562C109.561 34.257 109.113 34.0839 108.665 33.9367C108.598 33.915 108.541 33.8793 108.492 33.8295L108.399 33.7354C108.319 33.6564 108.27 33.6726 108.251 33.7841L107.819 36.3376C107.16 38.5714 105.952 40.4589 104.194 42C104.078 42.1017 103.954 42.1596 103.822 42.1737C103.8 42.2711 103.774 42.3225 103.743 42.3279C103.7 42.3361 103.657 42.328 103.621 42.3053C103.585 42.2826 103.559 42.2471 103.549 42.2061C103.445 41.7765 103.227 41.6196 102.894 41.7354C102.813 41.7634 102.745 41.8194 102.702 41.8931C102.658 41.9669 102.642 42.0537 102.657 42.138C102.887 43.4832 103.102 44.8322 103.303 46.185C103.391 46.7873 103.519 47.6104 104.394 47.3831C105.851 47.0054 107.356 46.6174 108.91 46.2191C108.969 46.2036 109.022 46.1688 109.059 46.12C109.097 46.0712 109.117 46.0113 109.117 45.9497C109.116 45.4318 108.763 45.3506 108.342 45.4545C108.326 45.459 108.308 45.458 108.292 45.4518C108.276 45.4456 108.262 45.4344 108.253 45.4198C108.243 45.4053 108.239 45.3881 108.239 45.3707C108.24 45.3533 108.246 45.3367 108.257 45.323C110.002 43.0958 110.967 40.5498 111.152 37.685Z" fill="url(#paint1_linear_1401_386)"/>
<defs>
<linearGradient id="paint0_linear_1401_386" x1="7.15948" y1="7.45755" x2="33.8346" y2="30.242" gradientUnits="userSpaceOnUse">
<stop stop-color="#F59D08"/>
<stop offset="0.5" stop-color="#E5352B"/>
<stop offset="0.85" stop-color="#393868"/>
</linearGradient>
<linearGradient id="paint1_linear_1401_386" x1="103.836" y1="47.4026" x2="103.171" y2="33.6221" gradientUnits="userSpaceOnUse">
<stop stop-color="#F59D08"/>
<stop offset="0.5" stop-color="#E5352B"/>
<stop offset="0.85" stop-color="#393868"/>
</linearGradient>
</defs>
</svg>
