<svg width="416" height="179" viewBox="0 0 416 179" fill="none" xmlns="http://www.w3.org/2000/svg">
<path d="M83.8991 21.6834C83.7643 21.9895 83.5717 22.1232 83.3213 22.0844C83.0517 22.0457 82.8957 22.1445 82.8533 22.3808C82.8264 22.528 82.7281 22.6152 82.5587 22.6423C82.4537 22.6611 82.3585 22.712 82.2871 22.7876L79.1093 25.9782C78.963 26.1216 78.7877 26.1933 78.5835 26.1933C78.4603 26.1933 78.3544 26.2378 78.2658 26.327C77.2104 27.3692 76.1761 28.4133 75.1631 29.4595C74.7933 29.8392 74.387 30.1317 73.944 30.337C72.6228 30.9531 72.072 31.8926 72.2916 33.1557C72.3262 33.3572 72.2415 33.4656 72.0373 33.4811C71.5867 33.516 71.2496 33.7485 71.0262 34.1785C70.9646 34.2987 70.8664 34.3587 70.7315 34.3587H70.4369C70.2636 34.3587 70.1153 34.4207 69.992 34.5447C68.8981 35.6721 67.783 36.7996 66.6467 37.9271C66.4117 38.1596 66.1344 38.3165 65.8147 38.3978C65.6413 38.4443 65.4911 38.5296 65.364 38.6535L61.6084 42.3905C61.572 42.4272 61.5285 42.456 61.4808 42.475C61.4331 42.494 61.3821 42.5028 61.3311 42.5009C61.281 42.497 61.231 42.4931 61.1809 42.4893C61.0499 42.4815 60.9382 42.5241 60.8458 42.6171L56.9747 46.4703C56.913 46.5323 56.8379 46.5613 56.7493 46.5574C56.6877 46.5574 56.628 46.5555 56.5702 46.5516C56.3776 46.5478 56.2178 46.6156 56.0907 46.755C54.7849 48.2196 53.6582 49.3083 52.7107 50.0212C52.1252 50.459 51.4434 50.8562 50.6653 51.2126C50.5817 51.2509 50.5067 51.3085 50.4458 51.3811L47.5222 54.8682C47.3913 55.027 47.2237 55.1297 47.0195 55.1762C46.5381 55.2847 46.1317 55.5442 45.8004 55.9549C45.681 56.1022 45.6425 56.2668 45.6849 56.4489L45.76 56.8093C45.8332 57.1463 45.7234 57.2238 45.4307 57.0417L44.1942 56.2688" stroke="#F26829" stroke-width="2"/>
<path d="M44.1943 56.2688L25.8556 39.4614" stroke="#95604E" stroke-width="2"/>
<path d="M106.606 67.8224C109.761 70.4842 112.817 73.5818 115.775 77.1153" stroke="#74405E" stroke-width="2"/>
<path d="M115.775 77.1153C122.92 85.8638 127.702 95.734 130.121 106.726C130.399 107.981 130.861 108.055 131.508 106.947C131.805 106.443 132.221 106.017 132.756 105.668C133.295 105.319 133.792 104.942 134.247 104.535C136.142 102.849 137.954 100.994 139.684 98.9672" stroke="#543F67" stroke-width="2"/>
<path d="M123.35 53.5489L116.85 59.4071C116.77 59.4795 116.709 59.5734 116.671 59.6802C116.59 59.9127 116.43 60.0464 116.191 60.0812C116.071 60.0963 115.961 60.1495 115.879 60.2323C112.936 63.0878 109.845 65.6178 106.606 67.8224" stroke="#D24939" stroke-width="2"/>
<path d="M106.606 67.8224C90.1739 54.5989 71.5502 49.6551 50.7348 52.991C50.4382 53.0375 50.3631 53.1924 50.5094 53.4559C50.8369 54.0564 51.222 54.6357 51.665 55.1936C52.8206 56.6407 53.0286 58.5528 51.6014 59.8546C51.0314 60.3776 50.3034 60.7089 49.4174 60.8484C49.221 60.8755 49.0515 60.8232 48.909 60.6914L44.1943 56.2688" stroke="#934649" stroke-width="2"/>
<path d="M130 66.9739C128.548 68.4268 127.207 69.9378 125.979 71.507C125.748 71.8053 125.461 71.968 125.118 71.9952C124.933 72.0068 124.771 72.0746 124.632 72.1986C122.699 73.9421 120.752 75.6604 118.791 77.3535C117.428 78.5352 116.422 79.2307 115.775 79.4399" stroke="#934257" stroke-width="2"/>
<path d="M397.985 124.271C397.372 124.143 396.787 124.021 396.228 123.905C395.639 123.777 395.069 123.593 394.518 123.353C392.908 122.64 391.3 122.02 389.694 121.493C389.455 121.416 389.249 121.288 389.076 121.11L388.74 120.773C388.455 120.49 388.278 120.548 388.209 120.947L386.66 130.089" stroke="#543F67" stroke-width="2"/>
<path d="M25.8556 39.4614L44.1943 56.2688L48.9089 60.6915C49.0514 60.8232 49.2209 60.8755 49.4174 60.8484C50.3033 60.7089 51.0313 60.3776 51.6014 59.8546C53.0285 58.5528 52.8205 56.6407 51.6649 55.1936C51.222 54.6357 50.8368 54.0565 50.5094 53.4559C50.363 53.1925 50.4381 53.0375 50.7347 52.991C71.5501 49.6551 90.1738 54.5989 106.606 67.8224C109.76 70.4842 112.817 73.5818 115.775 77.1153C122.92 85.8638 127.702 95.734 130.121 106.726C130.399 107.981 130.861 108.055 131.508 106.947C131.805 106.443 132.221 106.017 132.756 105.668C133.295 105.319 133.792 104.942 134.247 104.535C136.142 102.849 137.954 100.994 139.684 98.9672C140.822 113.63 137.037 126.962 127.412 138.155C110.737 157.532 83.8934 164.389 58.9796 164.599C47.9363 164.692 36.9778 164.537 26.104 164.134C25.9423 164.126 25.8614 164.041 25.8614 163.878L25.8556 39.4614ZM105.502 87.094C100.412 76.5864 88.9431 69.9553 77.8845 67.4505C70.6314 65.8116 63.2937 65.0774 55.8711 65.2478C55.6824 65.2517 55.5861 65.3505 55.5823 65.5442C55.4513 90.3098 55.459 115.317 55.6054 140.567C55.6068 140.649 55.6396 140.726 55.6967 140.783C55.7538 140.841 55.8308 140.874 55.9116 140.875C64.1083 141.069 72.3648 139.973 80.6809 137.586C94.3569 133.657 106.369 123.644 108.547 108.882C109.714 100.955 108.699 93.6922 105.502 87.094Z" fill="#353D6E"/>
<path fill-rule="evenodd" clip-rule="evenodd" d="M83.8993 21.6834C73.0987 16.945 61.8397 14.1399 50.1224 13.2681C50.0727 13.2652 50.0246 13.2492 49.983 13.2216C49.9414 13.1941 49.9078 13.156 49.8855 13.1112C49.8633 13.0664 49.8531 13.0165 49.8562 12.9665C49.8592 12.9165 49.8753 12.8682 49.9028 12.8264C50.5114 11.8772 51.1393 10.9357 51.7864 10.0019C53.4215 7.64821 52.2255 5.02713 49.4637 4.64937C49.3603 4.63676 49.2556 4.64686 49.1568 4.67898C49.058 4.7111 48.9675 4.76447 48.8917 4.83535C40.5024 12.6114 31.905 20.5056 23.0997 28.518C22.3101 29.2386 21.74 30.1298 21.3895 31.1914C20.7424 33.1441 21.3413 35.0251 23.1864 36.8345C24.1686 37.7992 25.0584 38.6749 25.8557 39.4614L44.1944 56.2688L48.9091 60.6915C49.0516 60.8232 49.2211 60.8755 49.4175 60.8484C50.3034 60.7089 51.0314 60.3777 51.6015 59.8546C53.0286 58.5528 52.8206 56.6408 51.6651 55.1936C51.2221 54.6357 50.8369 54.0565 50.5095 53.4559C50.3631 53.1925 50.4383 53.0375 50.7348 52.991C71.5503 49.6551 90.174 54.5989 106.606 67.8224L106.606 67.8224C109.761 70.4841 112.817 73.5818 115.775 77.1152C122.92 85.8638 127.703 95.734 130.122 106.726C130.399 107.981 130.861 108.055 131.508 106.947C131.805 106.443 132.221 106.017 132.756 105.668C133.295 105.319 133.792 104.942 134.247 104.535C136.142 102.849 137.954 100.994 139.684 98.9672C139.514 96.3055 139.148 93.5895 138.586 90.8193C136.749 81.7588 134.299 72.8553 130 64.6492C127.97 60.674 125.754 56.9739 123.35 53.5488L123.35 53.5489C113.112 39.4265 99.8633 28.6807 83.8993 21.6834ZM56.5704 46.5517C56.6282 46.5555 56.6879 46.5575 56.7495 46.5575C56.6879 46.5575 56.6282 46.5555 56.5704 46.5517Z" fill="url(#paint0_linear_1426_9)"/>
<path d="M397.985 124.271C397.372 124.143 396.787 124.021 396.228 123.905C395.639 123.777 395.069 123.593 394.518 123.353C392.908 122.64 391.3 122.02 389.694 121.493C389.455 121.416 389.249 121.288 389.076 121.11L388.74 120.773C388.455 120.49 388.278 120.548 388.209 120.947L386.66 130.089C384.299 138.086 379.966 144.843 373.66 150.36C373.244 150.724 372.8 150.932 372.326 150.982C373.504 149.453 374.672 147.948 375.573 146.245C379.498 138.803 380.151 131.075 377.532 123.063C375.723 117.53 371.731 112.171 366.952 108.917C363.902 106.84 360.485 105.78 356.703 105.738C353.633 105.707 350.191 105.93 346.378 106.406C345.573 106.507 344.825 106.687 344.136 106.947C343.815 107.069 343.538 107.287 343.343 107.572C343.148 107.856 343.044 108.194 343.044 108.539V161.85C343.044 163.365 342.289 164.128 340.779 164.14C336.269 164.178 331.637 164.184 326.884 164.157C325.445 164.145 323.665 164.267 323.66 162.146C323.571 139.969 323.532 117.071 323.544 93.452C323.544 93.1096 323.626 92.7725 323.784 92.4698C323.942 92.167 324.171 91.9077 324.451 91.7143C325.888 90.7108 327.38 89.8274 328.929 89.0641C346.644 80.3292 367.23 83.0781 382.154 95.9452C390.666 103.283 395.943 112.725 397.985 124.271Z" fill="#353D6E"/>
<path d="M202.95 116.693C202.989 116.754 203.051 116.798 203.122 116.814C203.193 116.83 203.268 116.818 203.332 116.78C207.241 114.401 211.322 112.607 215.575 111.398C222.156 109.533 229.927 110.794 233.786 116.867C233.987 117.185 234.248 117.249 234.572 117.059C240.296 113.781 245.741 111.722 250.906 110.881C261.959 109.08 269.776 115.548 269.724 126.933C269.662 139.99 269.664 152.117 269.73 163.314C269.731 163.357 269.723 163.4 269.707 163.441C269.691 163.481 269.667 163.517 269.637 163.548C269.607 163.579 269.571 163.603 269.531 163.62C269.492 163.637 269.449 163.646 269.406 163.645H254.511C254.272 163.645 254.153 163.525 254.153 163.285C254.195 152.735 254.199 142.406 254.164 132.297C254.161 131.1 254.07 129.841 253.893 128.52C252.68 119.5 241.679 123.992 237.039 126.509C236.627 126.73 236.419 127.086 236.415 127.578C236.327 137.811 236.363 149.676 236.525 163.175C236.526 163.239 236.514 163.303 236.49 163.363C236.466 163.422 236.431 163.476 236.386 163.522C236.341 163.567 236.288 163.603 236.23 163.627C236.171 163.652 236.109 163.664 236.045 163.663L221.277 163.622C221.236 163.622 221.195 163.614 221.157 163.598C221.118 163.582 221.084 163.558 221.055 163.528C221.026 163.499 221.003 163.463 220.987 163.424C220.972 163.386 220.965 163.344 220.965 163.303C221.193 151.935 221.198 141.21 220.983 131.129C220.711 118.587 209.491 123.649 203.459 127.2C203.197 127.355 203.066 127.584 203.066 127.886L203.147 163.303C203.147 163.531 203.033 163.645 202.806 163.645L187.997 163.657C187.965 163.658 187.933 163.652 187.904 163.64C187.874 163.628 187.847 163.61 187.824 163.587C187.801 163.565 187.783 163.537 187.772 163.507C187.76 163.477 187.754 163.445 187.755 163.413C188.044 145.67 188.003 129.641 187.766 112.229C187.762 112.009 187.87 111.898 188.09 111.898L202.476 111.892C202.792 111.892 202.952 112.051 202.956 112.369C202.975 113.686 202.933 114.969 202.829 116.216C202.817 116.387 202.858 116.546 202.95 116.693Z" fill="#353D6E"/>
<path d="M287.45 138.074C287.562 141.073 288.54 143.711 290.385 145.99C296.689 153.76 309.637 153.155 318.54 152.609C318.922 152.586 319.085 152.764 319.031 153.144L317.587 163.401C317.548 163.661 317.4 163.802 317.142 163.826C311.696 164.306 306.328 164.285 301.039 163.762C283.718 162.053 269.464 151.174 272.497 131.838C273.287 126.79 275.561 122.278 279.321 118.303C286.318 110.904 297.654 109.062 307.066 111.852C315.235 114.275 320.251 121.232 321.643 129.63C322.051 132.102 322.273 134.649 322.307 137.272C322.311 137.594 322.153 137.754 321.834 137.754H287.762C287.72 137.754 287.679 137.763 287.64 137.779C287.601 137.795 287.566 137.819 287.537 137.849C287.508 137.879 287.485 137.914 287.47 137.953C287.456 137.991 287.449 138.033 287.45 138.074ZM287.242 130.99L307.661 130.885C307.705 130.885 307.748 130.867 307.779 130.836C307.811 130.804 307.828 130.761 307.828 130.717V130.589C307.822 129.214 307.546 127.853 307.018 126.586C306.491 125.318 305.72 124.168 304.752 123.201C303.783 122.234 302.636 121.469 301.374 120.949C300.112 120.43 298.762 120.166 297.399 120.174H297.388C294.638 120.189 292.007 121.306 290.073 123.279C288.139 125.251 287.061 127.918 287.075 130.693V130.821C287.075 130.866 287.092 130.909 287.124 130.94C287.155 130.972 287.198 130.99 287.242 130.99Z" fill="#353D6E"/>
<path d="M169.514 130.298C169.287 128.059 168.488 126.406 167.116 125.341C164.343 123.179 159.934 122.592 156.474 122.499C152.314 122.39 148.138 122.468 143.947 122.731C143.906 122.734 143.864 122.728 143.825 122.712C143.786 122.697 143.751 122.672 143.722 122.641C143.694 122.61 143.672 122.573 143.659 122.532C143.646 122.492 143.642 122.448 143.647 122.406L144.935 111.852C144.966 111.596 145.109 111.46 145.363 111.445C152.185 111.023 158.419 111.145 164.066 111.811C173.859 112.962 182.578 118.343 184.386 128.624C184.806 131.007 185.022 133.415 185.033 135.848C185.079 144.907 185.07 154.058 185.004 163.303C185.004 163.551 184.883 163.684 184.64 163.704C177.403 164.351 170.506 164.603 163.95 164.459C155.428 164.273 142.624 162.419 138.718 153.487C137.906 151.639 137.573 149.608 137.719 147.396C138.389 136.935 149.454 133.483 158.559 132.094C162.538 131.486 166.03 131.077 169.034 130.868C169.393 130.844 169.553 130.654 169.514 130.298ZM170.392 138.062C170.392 138.023 170.384 137.984 170.369 137.948C170.353 137.912 170.33 137.879 170.301 137.852C170.273 137.826 170.239 137.805 170.202 137.792C170.164 137.779 170.125 137.774 170.086 137.778C164.297 138.167 151.349 139.759 153.359 148.768C154.804 155.23 164.944 155.463 169.936 155.073C170.062 155.064 170.179 155.008 170.265 154.915C170.351 154.822 170.398 154.7 170.398 154.573L170.392 138.062Z" fill="#353D6E"/>
<path fill-rule="evenodd" clip-rule="evenodd" d="M398.615 134.913C398.792 131.371 398.582 127.824 397.985 124.271C397.681 124.208 397.385 124.146 397.095 124.086C396.799 124.024 396.51 123.964 396.228 123.905C395.639 123.777 395.069 123.593 394.518 123.353C392.908 122.64 391.3 122.02 389.694 121.493C389.455 121.416 389.249 121.288 389.076 121.11L388.74 120.773C388.455 120.49 388.278 120.548 388.209 120.947L386.66 130.089C384.299 138.086 379.966 144.843 373.66 150.36C373.244 150.724 372.799 150.931 372.326 150.982C372.249 151.331 372.154 151.515 372.043 151.534C371.891 151.563 371.734 151.534 371.605 151.453C371.476 151.372 371.384 151.245 371.349 151.098C370.976 149.56 370.192 148.998 368.998 149.413C368.709 149.513 368.465 149.713 368.309 149.977C368.153 150.242 368.096 150.552 368.148 150.854C368.973 155.67 369.745 160.499 370.465 165.343C370.783 167.499 371.24 170.445 374.377 169.632C379.604 168.279 385.002 166.89 390.572 165.465C390.785 165.409 390.975 165.284 391.11 165.11C391.245 164.935 391.318 164.72 391.317 164.5C391.312 162.646 390.046 162.355 388.538 162.727C388.478 162.743 388.415 162.74 388.357 162.717C388.299 162.695 388.25 162.655 388.216 162.603C388.182 162.551 388.166 162.489 388.168 162.427C388.171 162.365 388.193 162.305 388.232 162.257C394.491 154.283 397.952 145.168 398.615 134.913Z" fill="url(#paint1_linear_1426_9)"/>
<defs>
<linearGradient id="paint0_linear_1426_9" x1="25.6754" y1="26.698" x2="121.198" y2="108.43" gradientUnits="userSpaceOnUse">
<stop stop-color="#F59D08"/>
<stop offset="0.5" stop-color="#E5352B"/>
<stop offset="0.85" stop-color="#393868"/>
</linearGradient>
<linearGradient id="paint1_linear_1426_9" x1="372.378" y1="169.701" x2="370.002" y2="120.367" gradientUnits="userSpaceOnUse">
<stop stop-color="#F59D08"/>
<stop offset="0.5" stop-color="#E5352B"/>
<stop offset="0.85" stop-color="#393868"/>
</linearGradient>
</defs>
</svg>
