<svg width="21" height="18" viewBox="0 0 21 18" fill="none" xmlns="http://www.w3.org/2000/svg">
<path d="M18.5847 2.17694C18.1241 1.73101 17.5771 1.37726 16.9752 1.13591C16.3732 0.894563 15.728 0.77034 15.0764 0.77034C14.4248 0.77034 13.7796 0.894563 13.1777 1.13591C12.5757 1.37726 12.0288 1.73101 11.5682 2.17694L10.6148 3.10423L9.65837 2.17884C8.71937 1.32074 7.47157 0.850723 6.18011 0.868653C4.88865 0.886583 3.65531 1.39105 2.74214 2.27486C1.82897 3.15867 1.30795 4.35218 1.28978 5.60178C1.27161 6.85138 1.75773 8.05859 2.64484 8.96691L3.60025 9.89134L10.6148 16.6813L17.6322 9.89134L18.5876 8.96596C19.0483 8.52008 19.4137 7.99075 19.6629 7.40821C19.912 6.82566 20.0401 6.20132 20.0399 5.57085C20.0396 4.94039 19.9109 4.31615 19.6613 3.73381C19.4116 3.15147 19.0457 2.62243 18.5847 2.17694V2.17694Z" stroke="#707070" stroke-width="1.38673" stroke-linecap="round" stroke-linejoin="round"/>
</svg>
