<svg width="24" height="24" viewBox="0 0 24 24" fill="none" xmlns="http://www.w3.org/2000/svg">
<path d="M12.6944 20.6284C12.3024 20.7446 11.8851 20.7446 11.4931 20.6284C8.68374 19.6694 2.40624 15.6684 2.40624 8.88718C2.4042 8.1779 2.54192 7.47517 2.81153 6.81913C3.08113 6.16309 3.47734 5.56659 3.97753 5.0637C4.47771 4.56082 5.07207 4.1614 5.72665 3.88827C6.38124 3.61514 7.08321 3.47364 7.79249 3.47186C8.62929 3.47145 9.45449 3.66761 10.2016 4.04453C10.9487 4.42145 11.5968 4.96859 12.0937 5.64186C12.7696 4.73187 13.7159 4.0589 14.7973 3.71919C15.8787 3.37949 17.0399 3.39045 18.1147 3.75051C19.1895 4.11057 20.1229 4.80129 20.7815 5.72388C21.44 6.64648 21.79 7.75369 21.7812 8.88718C21.7812 15.6684 15.5037 19.6694 12.6944 20.6284Z" stroke="#292D32" stroke-width="1.45312" stroke-linecap="round" stroke-linejoin="round"/>
</svg>
