<svg width="25" height="21" viewBox="0 0 25 21" fill="none" xmlns="http://www.w3.org/2000/svg">
<path d="M1.63234 19.8469C1.58202 19.847 1.53225 19.8369 1.48616 19.8174C1.44006 19.7979 1.39865 19.7693 1.36454 19.7335C1.33042 19.6977 1.30434 19.6555 1.28794 19.6095C1.27155 19.5635 1.26519 19.5146 1.26927 19.4661C1.27812 19.3414 2.33979 7.14668 16.2173 6.10039L16.1838 1.50393C16.1834 1.43287 16.2052 1.36334 16.2463 1.30448C16.2875 1.24562 16.3461 1.20018 16.4144 1.17413C16.4827 1.14807 16.5576 1.14262 16.6292 1.1585C16.7008 1.17437 16.7657 1.21082 16.8155 1.26306L24.4538 9.08314C24.5176 9.14837 24.5531 9.23472 24.5531 9.32448C24.5531 9.41424 24.5176 9.5006 24.4538 9.56583L16.7683 17.4564C16.7181 17.5078 16.653 17.5434 16.5816 17.5586C16.5101 17.5737 16.4356 17.5677 16.3678 17.5413C16.2999 17.5149 16.2418 17.4693 16.2011 17.4105C16.1604 17.3517 16.139 17.2825 16.1396 17.2117L16.1838 12.7371C13.446 12.9144 10.773 13.6224 8.32357 14.8191C5.87416 16.0158 3.69839 17.6767 1.92555 19.7032C1.89176 19.7477 1.8476 19.7839 1.79667 19.8089C1.74573 19.8339 1.68944 19.8469 1.63234 19.8469ZM16.9139 2.39694L16.9434 6.4298C16.9441 6.51972 16.9093 6.6065 16.846 6.67235C16.7827 6.73819 16.6957 6.77813 16.603 6.78396C5.43625 7.46657 2.77961 15.339 2.16957 18.3627C5.95107 14.5602 11.0832 12.2883 16.5292 12.0059C16.5789 12.0033 16.6286 12.0106 16.6753 12.0273C16.7219 12.044 16.7646 12.0698 16.8005 12.1031C16.8365 12.1364 16.865 12.1764 16.8843 12.2208C16.9037 12.2651 16.9134 12.3129 16.9129 12.361L16.8746 16.3196L23.6874 9.32591L16.9139 2.39694Z" fill="#707070" stroke="#707070" stroke-width="0.756534"/>
</svg>
